<?xml version="1.0" encoding="utf-8"?><svg version="1.1" id="Layer_1" xmlns="http://www.w3.org/2000/svg" xmlns:xlink="http://www.w3.org/1999/xlink" x="0px" y="0px" viewBox="0 0 122.88 108.98" style="enable-background:new 0 0 122.88 108.98" xml:space="preserve"><style type="text/css"><![CDATA[
	.st0{fill-rule:evenodd;clip-rule:evenodd;}
]]></style><g><path class="st0" d="M28.04,70.43l-0.11,6.45h11.64c2.47,0,4.48,2.01,4.48,4.48v4.48h-0.05v15.83c0,2.47-2.01,4.48-4.48,4.48h-4.48 V87.45c0-1.85,0.35-1.62-1.44-1.62H22.09V85.8h-5.74c-3.7,0-6.73-3.04-6.73-6.73V57c0-3.77,3.08-6.85,6.85-6.85h3.39 c5.38,0,5.91,2.57,7.27,5.26l5.72,2.25c4.14,1.87,3.08,2.24,5.9-1.25l3.66-4.53c1.79-2.86,10,0.13,6.96,4.93l-6.43,7.25 c-2.21,3.02-5.14,3.44-8.7,1.96l-6.19-2.18L28.04,70.43L28.04,70.43L28.04,70.43z M80,20.8h-3.57v-0.36c0-0.61,0.07-1.1,0.21-1.48 c0.14-0.38,0.34-0.73,0.61-1.04c0.27-0.31,0.88-0.87,1.83-1.65c0.5-0.42,0.76-0.79,0.76-1.13c0-0.35-0.1-0.61-0.31-0.8 s-0.51-0.29-0.92-0.29c-0.45,0-0.81,0.15-1.11,0.44c-0.29,0.29-0.48,0.81-0.56,1.54l-3.63-0.45c0.12-1.33,0.61-2.41,1.46-3.22 c0.85-0.81,2.15-1.22,3.89-1.22c1.36,0,2.46,0.29,3.3,0.85c1.14,0.77,1.71,1.79,1.71,3.08c0,0.53-0.15,1.04-0.44,1.54 c-0.29,0.49-0.89,1.1-1.8,1.81c-0.63,0.5-1.03,0.9-1.19,1.21C80.08,19.92,80,20.31,80,20.8L80,20.8z M74.73,7.74h5.67h7.23 c0.68,0,1.3,0.12,1.86,0.35c0.56,0.23,1.08,0.58,1.55,1.06l0,0l0,0c0.47,0.47,0.83,0.99,1.06,1.55c0.23,0.56,0.35,1.18,0.35,1.86 v10.12c0,0.68-0.12,1.3-0.35,1.86c-0.23,0.56-0.58,1.08-1.06,1.55c-0.48,0.47-1,0.83-1.56,1.06c-0.56,0.23-1.18,0.35-1.85,0.35 h-6.99c-0.53,0-0.95,0.43-0.95,0.95c0,0.11,0.02,0.22,0.06,0.32c0.16,0.63,0.35,1.25,0.56,1.85c0.22,0.63,0.46,1.24,0.72,1.82l0,0 c0.13,0.3,0.28,0.59,0.45,0.88c-0.91-0.4-1.77-0.87-2.56-1.39l0,0l0,0c-0.84-0.55-1.61-1.16-2.33-1.83 c-0.72-0.68-1.38-1.42-1.98-2.22c-0.19-0.25-0.47-0.38-0.76-0.38v0h-3.82c-0.67,0-1.29-0.12-1.85-0.35 c-0.56-0.23-1.08-0.59-1.56-1.06c-0.47-0.47-0.83-0.99-1.06-1.55c-0.23-0.56-0.35-1.18-0.35-1.86V12.56c0-0.68,0.12-1.3,0.35-1.86 c0.23-0.56,0.58-1.08,1.06-1.55l0,0l0,0c0.47-0.47,0.99-0.83,1.55-1.06c0.56-0.23,1.18-0.35,1.86-0.35L74.73,7.74L74.73,7.74 L74.73,7.74z M80.41,5.84h-5.67h-4.7c-0.92,0-1.78,0.16-2.58,0.49c-0.8,0.33-1.52,0.82-2.17,1.47l0,0l0,0l0,0 c-0.65,0.65-1.14,1.38-1.47,2.17c-0.33,0.8-0.5,1.66-0.5,2.58v10.12c0,0.92,0.17,1.78,0.5,2.58c0.33,0.8,0.82,1.52,1.47,2.18 c0.65,0.65,1.38,1.14,2.18,1.47s1.66,0.5,2.57,0.5h3.36c0.59,0.75,1.22,1.44,1.9,2.08c0.8,0.75,1.67,1.43,2.59,2.04l0,0 c0.93,0.61,1.92,1.15,2.96,1.6c1.05,0.46,2.16,0.84,3.33,1.14v0c0.33,0.09,0.7-0.01,0.95-0.29c0.35-0.39,0.31-0.99-0.08-1.34 c-0.55-0.49-1.01-0.98-1.39-1.47c-0.37-0.48-0.66-0.97-0.89-1.48l0,0l0-0.01c-0.25-0.55-0.47-1.1-0.66-1.67 c-0.07-0.2-0.14-0.4-0.2-0.61h5.73c0.92,0,1.77-0.17,2.57-0.5c0.8-0.33,1.53-0.82,2.18-1.47c0.65-0.65,1.14-1.38,1.47-2.18 c0.33-0.8,0.49-1.66,0.49-2.58V12.56c0-0.92-0.16-1.78-0.49-2.58c-0.33-0.8-0.82-1.52-1.47-2.17v0l0,0l0,0 c-0.65-0.65-1.38-1.14-2.17-1.47c-0.8-0.33-1.66-0.5-2.58-0.5H80.41L80.41,5.84L80.41,5.84z M76.31,22.04h3.82v2.46h-3.82V22.04 L76.31,22.04z M32.62,10.87c1.15,0,2.08,0.93,2.08,2.08s-0.93,2.08-2.08,2.08c-1.15,0-2.08-0.93-2.08-2.08S31.47,10.87,32.62,10.87 L32.62,10.87z M49.55,10.87c1.15,0,2.08,0.93,2.08,2.08s-0.93,2.08-2.08,2.08c-1.15,0-2.08-0.93-2.08-2.08S48.4,10.87,49.55,10.87 L49.55,10.87z M41.08,10.87c1.15,0,2.08,0.93,2.08,2.08s-0.93,2.08-2.08,2.08s-2.08-0.93-2.08-2.08S39.94,10.87,41.08,10.87 L41.08,10.87z M49.57,0c4.16,0,7.48,3.32,7.48,7.48v10.15c0,4.16-3.32,7.49-7.48,7.49h-4.78c-3.08,3.91-7.24,6.4-12.01,7.64v0 c-0.37,0.1-0.78-0.02-1.05-0.32c-0.39-0.44-0.34-1.1,0.09-1.49c2.01-1.78,2.74-3.38,3.5-5.83l-2.72,0c-3.02,0-5.77-1.81-6.93-4.61 c-0.37-0.89-0.55-1.85-0.55-2.88V7.48C25.12,3.33,28.45,0,32.6,0C38.82,0,43.35,0,49.57,0L49.57,0z M119.2,101.95 c-0.04-0.28-0.15-0.54-0.37-0.75c-2.87-2.88-6.78-4.5-10.79-4.91l0.34-3.65h12.15c1.26,0,2.3-1.04,2.3-2.3 c0-9.54-2.25-16.71,0-27.56c0.66-3.22-5.97-3.68-5.97,0.17v24.44H93.88c-1.26,0-2.3,1.7-2.3,2.96v1.79c0,0.28,0.23,0.51,0.51,0.51 h12.19l0.47,3.59c-3.99,0.26-7.96,1.73-10.94,4.45c-0.37,0.34-0.5,0.84-0.39,1.29c-0.6,0.44-0.98,0.89-0.98,1.97 s1.1,2.45,2.45,2.45s2.45-1.37,2.45-2.45s-0.4-1.53-1-1.98c2.59-2,5.82-3.04,9.08-3.14l0.27,2.65c0.03,0.31-1.78,0.41-1.78,2.48 c0,1.24,1.1,2.45,2.45,2.45s2.45-1.21,2.45-2.45c0-1.23-0.75-2.06-1.77-2.35l0.2-2.75c3.16,0.21,6.37,1.31,8.82,3.35 c-0.45,0.44-0.73,0.73-0.73,1.74c0,1.01,1.1,2.45,2.45,2.45s2.45-1.37,2.45-2.45C120.22,102.85,119.82,102.39,119.2,101.95 L119.2,101.95L119.2,101.95z M99.6,28.99c-5.17,0-9.38,4.2-9.38,9.37s4.2,9.37,9.38,9.37c5.17,0,9.37-4.2,9.37-9.37 C108.96,33.19,104.77,28.99,99.6,28.99L99.6,28.99L99.6,28.99z M95.69,65.75l0.18,11.12H84.24c-2.47,0-4.48,2.01-4.48,4.48v4.48 h0.05v15.83c0,2.47,2.01,4.48,4.48,4.48h4.48V87.11c0-1.97,0.74-1.28,2.96-1.28h10V85.8h5.74c3.71,0,6.73-3.04,6.73-6.73V55.69 c0-3.77-3.08-6.85-6.85-6.85h-3.39c-7.05,0-5.93,4.86-9.06,7.91c-3.08,3.01-2.31,3.36-6.52,3.36h-9.08c-5.42,0-6.74,7.08,0.97,7.08 h8.32C92.31,67.2,92.63,67.79,95.69,65.75L95.69,65.75L95.69,65.75z M83.98,68.64c-14.61,0-30.42,0-45.03,0 c-0.22,0-0.4,0.18-0.4,0.39v5.7c0,0.22,0.18,0.39,0.4,0.39c7.63,0,11.62,0,19.26,0v33.3c0,0.29,0.24,0.53,0.53,0.53h7.16 c0.29,0,0.53-0.24,0.53-0.53V75.15c5.04,0,12.51,0,17.55,0c0.21,0,0.39-0.18,0.39-0.39v-5.7c0-0.23,2.63-0.4,2.42-0.4H83.98 L83.98,68.64z M1.24,64.1h3.27c0.67,0,1.11,0.56,1.21,1.21c1.23,7.79,1.91,15.57,1.87,23.34h22.35c0.89,0,1.6,0.72,1.6,1.6v3.24 h-1.28v14.89c0,0.27-0.22,0.49-0.49,0.49h-4.29c-0.27,0-0.49-0.22-0.49-0.49v-7.21H6.71c-0.27,2.2-0.6,4.39-0.99,6.59 c-0.12,0.66-0.55,1.21-1.21,1.21H1.24c-0.66,0-1.4-0.57-1.21-1.21c4.31-14.99,3.41-27.96,0-42.45C-0.13,64.66,0.58,64.1,1.24,64.1 L1.24,64.1L1.24,64.1z M25,98.94V93.5H7.52c-0.1,3.04-0.31,2.41-0.64,5.44H25L25,98.94L25,98.94z M19.64,28.66 c5.17,0,9.37,4.2,9.37,9.37c0,5.17-4.2,9.37-9.37,9.37s-9.37-4.2-9.37-9.37C10.27,32.86,14.46,28.66,19.64,28.66L19.64,28.66 L19.64,28.66z"/></g></svg>